<?xml version="1.0" standalone="no"?><!DOCTYPE svg PUBLIC "-//W3C//DTD SVG 1.1//EN" "http://www.w3.org/Graphics/SVG/1.1/DTD/svg11.dtd"><svg t="1687250238420" class="icon" viewBox="0 0 1024 1024" version="1.1" xmlns="http://www.w3.org/2000/svg" p-id="2300" xmlns:xlink="http://www.w3.org/1999/xlink" width="50" height="50"><path d="M84.52 960c-5.25 0-10.5-2-14.51-6.01-8.02-8.02-8.02-21 0-29.02L265.6 729.39c8.02-8.02 21-8.02 29.02 0s8.02 21 0 29.02L99.03 953.99A20.45 20.45 0 0 1 84.52 960z" fill="#FFD600" p-id="2301"></path><path d="M496.561 723.033L300.977 527.449l316.845-316.845 195.584 195.584z" fill="#E1F5FF" p-id="2302"></path><path d="M643.36 259.59l121.06 121.06c54.01 54.01 141.58 54.01 195.59 0L643.36 64c-54.01 54.01-54.01 141.58 0 195.59zM84.52 548.3L475.7 939.48c72.01-72.01 72.01-188.77 0-260.78L345.3 548.3c-72.01-72.01-188.77-72.01-260.78 0z" fill="#8C9EFF" p-id="2303"></path></svg>